<svg width="820" height="560" viewBox="0 0 820 560" fill="none" xmlns="http://www.w3.org/2000/svg">
  <rect width="820" height="560" rx="40" fill="#F7F2E8"/>
  <circle cx="115" cy="102" r="72" fill="#D8B56B" fill-opacity="0.22"/>
  <circle cx="680" cy="118" r="108" fill="#1F8A67" fill-opacity="0.12"/>
  <rect x="64" y="86" width="692" height="386" rx="28" fill="#17352E"/>
  <rect x="88" y="110" width="644" height="338" rx="22" fill="#21453C"/>
  <rect x="118" y="142" width="216" height="132" rx="20" fill="#F6F1E7"/>
  <rect x="142" y="168" width="104" height="18" rx="9" fill="#D7B56D"/>
  <rect x="142" y="200" width="150" height="14" rx="7" fill="#5D6C64" fill-opacity="0.56"/>
  <rect x="142" y="226" width="126" height="14" rx="7" fill="#5D6C64" fill-opacity="0.36"/>
  <rect x="362" y="142" width="340" height="132" rx="20" fill="#FDFBF7"/>
  <path d="M398 235C423 216 448 192 474 192C500 192 513 214 537 214C562 214 580 173 613 173C646 173 659 224 690 235" stroke="#1F8A67" stroke-width="10" stroke-linecap="round" stroke-linejoin="round"/>
  <circle cx="474" cy="192" r="10" fill="#D7B56D"/>
  <circle cx="537" cy="214" r="10" fill="#D7B56D"/>
  <circle cx="613" cy="173" r="10" fill="#D7B56D"/>
  <rect x="118" y="300" width="280" height="118" rx="22" fill="#FDFBF7"/>
  <rect x="146" y="332" width="26" height="50" rx="10" fill="#1F8A67"/>
  <rect x="188" y="312" width="26" height="70" rx="10" fill="#2D9A76"/>
  <rect x="230" y="286" width="26" height="96" rx="10" fill="#153F35"/>
  <rect x="272" y="346" width="26" height="36" rx="10" fill="#D7B56D"/>
  <rect x="314" y="324" width="26" height="58" rx="10" fill="#3F7E6F"/>
  <rect x="434" y="300" width="268" height="118" rx="22" fill="#FDFBF7"/>
  <circle cx="508" cy="359" r="38" fill="#1F8A67"/>
  <circle cx="508" cy="359" r="20" fill="#FDFBF7"/>
  <path d="M508 321C530 321 548 339 548 361" stroke="#D7B56D" stroke-width="16" stroke-linecap="round"/>
  <rect x="584" y="326" width="90" height="14" rx="7" fill="#D7B56D"/>
  <rect x="584" y="352" width="70" height="14" rx="7" fill="#5D6C64" fill-opacity="0.54"/>
  <rect x="584" y="378" width="102" height="14" rx="7" fill="#5D6C64" fill-opacity="0.32"/>
  <rect x="572" y="58" width="156" height="62" rx="18" fill="#FDFBF7"/>
  <rect x="596" y="80" width="42" height="18" rx="9" fill="#1F8A67"/>
  <rect x="650" y="80" width="52" height="18" rx="9" fill="#D7B56D"/>
</svg>
