<svg width="920" height="520" viewBox="0 0 920 520" fill="none" xmlns="http://www.w3.org/2000/svg">
  <rect width="920" height="520" rx="40" fill="#F8F3EA"/>
  <circle cx="144" cy="116" r="78" fill="#315F96" fill-opacity="0.12"/>
  <circle cx="760" cy="110" r="96" fill="#C89A4B" fill-opacity="0.2"/>
  <rect x="82" y="94" width="756" height="332" rx="30" fill="#FFFDF8"/>
  <rect x="116" y="132" width="248" height="248" rx="24" fill="#EEF4FB"/>
  <rect x="148" y="160" width="94" height="18" rx="9" fill="#315F96"/>
  <rect x="148" y="194" width="170" height="12" rx="6" fill="#647084" fill-opacity="0.58"/>
  <rect x="148" y="218" width="148" height="12" rx="6" fill="#647084" fill-opacity="0.34"/>
  <rect x="148" y="252" width="184" height="92" rx="18" fill="#FFFFFF"/>
  <circle cx="188" cy="298" r="20" fill="#C89A4B" fill-opacity="0.24"/>
  <rect x="220" y="284" width="78" height="14" rx="7" fill="#315F96"/>
  <rect x="220" y="310" width="62" height="12" rx="6" fill="#647084" fill-opacity="0.42"/>
  <rect x="396" y="132" width="406" height="108" rx="24" fill="#1D3557"/>
  <rect x="430" y="166" width="128" height="16" rx="8" fill="#C89A4B"/>
  <rect x="430" y="194" width="266" height="12" rx="6" fill="#DFE9F6" fill-opacity="0.72"/>
  <rect x="396" y="266" width="190" height="114" rx="24" fill="#FDFBF7"/>
  <rect x="430" y="300" width="122" height="14" rx="7" fill="#315F96"/>
  <rect x="430" y="326" width="100" height="12" rx="6" fill="#647084" fill-opacity="0.45"/>
  <rect x="612" y="266" width="190" height="114" rx="24" fill="#FDFBF7"/>
  <rect x="644" y="296" width="30" height="52" rx="10" fill="#315F96"/>
  <rect x="688" y="278" width="30" height="70" rx="10" fill="#3E74B4"/>
  <rect x="732" y="310" width="30" height="38" rx="10" fill="#C89A4B"/>
</svg>
