<svg width="920" height="520" viewBox="0 0 920 520" fill="none" xmlns="http://www.w3.org/2000/svg">
  <rect width="920" height="520" rx="40" fill="#F8F3EA"/>
  <rect x="86" y="96" width="748" height="332" rx="30" fill="#FFFDF8"/>
  <rect x="122" y="132" width="236" height="248" rx="24" fill="#FFFFFF"/>
  <rect x="154" y="164" width="118" height="16" rx="8" fill="#315F96"/>
  <rect x="154" y="196" width="170" height="12" rx="6" fill="#647084" fill-opacity="0.42"/>
  <rect x="154" y="232" width="172" height="96" rx="18" fill="#EEF4FB"/>
  <path d="M184 280L202 298L236 264" stroke="#315F96" stroke-width="10" stroke-linecap="round" stroke-linejoin="round"/>
  <rect x="392" y="132" width="180" height="248" rx="24" fill="#1D3557"/>
  <circle cx="482" cy="204" r="42" fill="#FDFBF7"/>
  <circle cx="482" cy="194" r="18" fill="#315F96"/>
  <path d="M446 260C458 236 506 236 518 260" stroke="#FDFBF7" stroke-width="16" stroke-linecap="round"/>
  <rect x="606" y="132" width="188" height="112" rx="24" fill="#EEF4FB"/>
  <rect x="638" y="168" width="88" height="16" rx="8" fill="#C89A4B"/>
  <rect x="638" y="196" width="118" height="12" rx="6" fill="#647084" fill-opacity="0.42"/>
  <rect x="606" y="268" width="188" height="112" rx="24" fill="#FFFFFF"/>
  <rect x="636" y="300" width="24" height="48" rx="10" fill="#315F96"/>
  <rect x="674" y="282" width="24" height="66" rx="10" fill="#4478B9"/>
  <rect x="712" y="312" width="24" height="36" rx="10" fill="#C89A4B"/>
</svg>
