<svg width="920" height="520" viewBox="0 0 920 520" fill="none" xmlns="http://www.w3.org/2000/svg">
  <rect width="920" height="520" rx="40" fill="#F8F3EA"/>
  <circle cx="130" cy="110" r="80" fill="#315F96" fill-opacity="0.12"/>
  <circle cx="754" cy="100" r="104" fill="#C89A4B" fill-opacity="0.18"/>
  <rect x="72" y="84" width="776" height="352" rx="30" fill="#1D3557"/>
  <rect x="98" y="110" width="724" height="300" rx="24" fill="#28446D"/>
  <rect x="132" y="146" width="246" height="228" rx="22" fill="#FFFCF8"/>
  <rect x="160" y="172" width="122" height="18" rx="9" fill="#315F96"/>
  <rect x="160" y="204" width="182" height="12" rx="6" fill="#667084" fill-opacity="0.6"/>
  <rect x="160" y="228" width="154" height="12" rx="6" fill="#667084" fill-opacity="0.4"/>
  <rect x="160" y="264" width="186" height="82" rx="16" fill="#EEF3FA"/>
  <path d="M184 318L212 286L238 302L272 254L314 278" stroke="#315F96" stroke-width="8" stroke-linecap="round" stroke-linejoin="round"/>
  <circle cx="212" cy="286" r="8" fill="#C89A4B"/>
  <circle cx="272" cy="254" r="8" fill="#C89A4B"/>
  <rect x="410" y="146" width="378" height="108" rx="22" fill="#FFFCF8"/>
  <rect x="438" y="174" width="88" height="16" rx="8" fill="#C89A4B"/>
  <rect x="438" y="202" width="222" height="12" rx="6" fill="#667084" fill-opacity="0.58"/>
  <rect x="438" y="226" width="198" height="12" rx="6" fill="#667084" fill-opacity="0.34"/>
  <rect x="410" y="272" width="180" height="102" rx="22" fill="#FFFCF8"/>
  <rect x="440" y="306" width="24" height="40" rx="10" fill="#315F96"/>
  <rect x="478" y="288" width="24" height="58" rx="10" fill="#3B74B8"/>
  <rect x="516" y="266" width="24" height="80" rx="10" fill="#1D3557"/>
  <rect x="554" y="318" width="24" height="28" rx="10" fill="#C89A4B"/>
  <rect x="614" y="272" width="174" height="102" rx="22" fill="#FFFCF8"/>
  <circle cx="698" cy="324" r="36" fill="#315F96"/>
  <circle cx="698" cy="324" r="18" fill="#FFFCF8"/>
  <path d="M698 288C718 288 734 304 734 324" stroke="#C89A4B" stroke-width="14" stroke-linecap="round"/>
  <rect x="742" y="302" width="20" height="18" rx="9" fill="#315F96"/>
  <rect x="742" y="330" width="28" height="18" rx="9" fill="#C89A4B"/>
  <rect x="710" y="56" width="110" height="50" rx="18" fill="#FFFCF8"/>
  <rect x="732" y="74" width="30" height="14" rx="7" fill="#315F96"/>
  <rect x="770" y="74" width="26" height="14" rx="7" fill="#C89A4B"/>
</svg>
